<svg width="173" height="32" viewBox="0 0 173 32" fill="none" xmlns="http://www.w3.org/2000/svg">
<path d="M62.3902 5.48184H65.9982V16.9105L70.2684 12.0646H74.6153L69.3952 17.9948L75.8244 25.2396H71.3719L65.9982 19.1847V25.2396H62.3902V5.48184Z" fill="black"/>
<path d="M82.5606 11.7767C86.0151 11.7767 89.0378 13.9934 89.0378 18.2539C89.0378 18.5706 89.0378 18.9352 88.9898 19.4918H79.1349C79.346 21.2574 80.9006 22.2266 82.6374 22.2266C84.2687 22.2266 85.4586 21.4589 86.0343 20.5665L88.7212 22.572C87.5121 24.3377 85.3722 25.518 82.6086 25.518C78.6839 25.518 75.6324 22.8023 75.6324 18.6473C75.6324 14.7514 78.5592 11.7767 82.5606 11.7767ZM79.2693 17.0448H85.4298C85.1131 15.4903 83.7985 14.7514 82.4551 14.7514C81.1117 14.7514 79.6147 15.4327 79.2693 17.0448Z" fill="black"/>
<path d="M91.9645 12.0646H95.5725V14.1757C96.0235 12.8899 97.3669 11.9111 98.8351 11.9111C99.1997 11.9111 99.6028 11.9399 100.044 12.0646V15.7206C99.4876 15.5383 98.9886 15.4328 98.4129 15.4328C96.7048 15.4328 95.5725 16.7762 95.5725 18.9352V25.2301H91.9645V12.0646Z" fill="black"/>
<path d="M107.5 11.7767C109.314 11.7767 110.715 12.6979 111.291 13.5424V12.0646H114.899V25.2301H111.291V23.7523C110.715 24.5968 109.314 25.518 107.5 25.518C103.998 25.518 101.311 22.3801 101.311 18.6473C101.311 14.9146 103.998 11.7767 107.5 11.7767ZM108.268 15.0681C106.291 15.0681 104.948 16.5938 104.948 18.6473C104.948 20.7009 106.291 22.2266 108.268 22.2266C110.245 22.2266 111.588 20.7009 111.588 18.6473C111.588 16.5938 110.235 15.0681 108.268 15.0681Z" fill="black"/>
<path d="M23.8191 10.3215L0.947693 25.518V18.9108L23.8191 3.70862V10.3215Z" fill="#FDAF19"/>
<path d="M46.6905 25.518L23.8191 10.3215V3.70862L46.6905 18.9108V25.518Z" fill="#FDAF19"/>
<path fill-rule="evenodd" clip-rule="evenodd" d="M18.3227 24.9069C18.6053 22.3393 20.6425 20.3004 23.2081 20.0176V24.9069H18.3227ZM18.3223 26.128C18.603 28.6977 20.641 30.7387 23.2081 31.0217V26.128H18.3223ZM24.4283 26.128V31.0223C26.9978 30.7413 29.0383 28.6994 29.3192 26.128H24.4283ZM29.3188 24.9069C29.0361 22.3376 26.9963 20.2978 24.4283 20.017V24.9069H29.3188Z" fill="#FDAF19"/>
<path d="M46.691 7.03161V0.386566L0.948208 0.386566V7.03161L46.691 7.03161Z" fill="#FDAF19"/>
<path d="M124.711 12.1211H128.275V13.6112C128.872 12.7597 130.255 11.8308 132.046 11.8308C135.505 11.8308 138.159 14.9949 138.159 18.7589C138.159 22.5228 135.505 25.6869 132.046 25.6869C130.255 25.6869 128.872 24.758 128.275 23.9065V30.941H124.711V12.1211ZM131.269 15.1497C129.317 15.1497 127.99 16.6882 127.99 18.7589C127.99 20.8295 129.317 22.368 131.269 22.368C133.221 22.368 134.548 20.8295 134.548 18.7589C134.548 16.6882 133.212 15.1497 131.269 15.1497Z" fill="black"/>
<path d="M140.755 5.4834H144.318V25.3967H140.755V5.4834Z" fill="black"/>
<path d="M147.597 12.1211H151.161V19.2136C151.161 21.2069 151.833 22.3777 153.369 22.3777C154.951 22.3777 156.051 21.1875 156.051 18.604V12.1211H159.614V25.3966H156.051V23.8871C155.378 24.9515 154.155 25.6966 152.487 25.6966C149.341 25.6966 147.597 23.3646 147.597 19.8329V12.1211Z" fill="black"/>
<path d="M167.413 25.6869C165.12 25.6869 163.177 24.8645 162.059 23.1421L164.504 21.0134C165.072 22.0004 166.172 22.5519 167.413 22.5519C168.143 22.5519 168.844 22.2616 168.844 21.594C168.844 21.0328 168.531 20.7135 167.1 20.3168L166.134 20.0749C163.746 19.4362 162.495 17.8687 162.542 15.8271C162.589 13.3887 164.674 11.8212 167.432 11.8212C169.413 11.8212 170.938 12.5953 171.933 14.0564L169.593 15.9916C168.996 15.2175 168.238 14.8208 167.385 14.8208C166.759 14.8208 166.086 15.111 166.086 15.7206C166.086 16.1174 166.266 16.5721 167.356 16.8624L168.579 17.2301C170.919 17.8687 172.35 19.0395 172.35 21.3424C172.36 23.9356 170.199 25.6869 167.413 25.6869Z" fill="black"/>
</svg>
