<svg width="65" height="54" viewBox="0 0 65 54" fill="none" xmlns="http://www.w3.org/2000/svg">
<path d="M42.0545 51.2969C41.1637 51.779 40.0897 51.779 39.1989 51.2969L7.45447 34.1173C5.35821 32.9829 5.35829 29.9748 7.4546 28.8404L22.9009 20.4822C23.7918 20.0002 24.8657 20.0002 25.7565 20.4823L57.501 37.6618C59.5972 38.7963 59.5971 41.8044 57.5008 42.9387L42.0545 51.2969Z" fill="white" stroke="#FFA800" stroke-width="2"/>
<path d="M42.0546 42.3186C41.1637 42.8009 40.0895 42.8009 39.1986 42.3187L7.45328 25.1388C5.35721 24.0044 5.35706 20.9966 7.45301 19.8621L22.9009 11.5C23.7918 11.0177 24.8659 11.0177 25.7569 11.4998L57.5022 28.6798C59.5982 29.8142 59.5984 32.8219 57.5024 33.9565L42.0546 42.3186Z" fill="white" stroke="#FFA800" stroke-width="2"/>
<path d="M42.0546 33.3406C41.1637 33.8228 40.0895 33.8229 39.1986 33.3407L7.45327 16.1607C5.35721 15.0264 5.35705 12.0186 7.45301 10.8841L22.9009 2.52195C23.7918 2.0397 24.8659 2.03964 25.7569 2.52181L57.5022 19.7018C59.5982 20.8361 59.5984 23.8439 57.5024 24.9785L42.0546 33.3406Z" fill="white" stroke="#FFA800" stroke-width="2"/>
</svg>
